# xmcd
#
# Track frame offsets:
# 150
# 11210
# 20799
# 32637
# 45774
# 57407
# 68610
# 79651
# 93650
# 104394
# 116794
# 127793
#
# Disc length: 1849 seconds
#
#
# Revision: 0
# Processed by: cddbd v1.5.2PL0 Copyright (c) Steve Scherf et al.
# Submitted via: FreeRIP 2.942 
#
DISCID=9607370c
DTITLE=George Jones - How Beautiful Heaven Must Be
DYEAR=2004
DGENRE=Gospel
TTITLE0=How Beautiful Heaven Must Be
TTITLE1=If You Want To Wear A Crown
TTITLE2=Lily Of The Valley
TTITLE3=The Old Rugged Cross
TTITLE4=Wanderin' Soul
TTITLE5=Lord You've Been Mighty Good To Me
TTITLE6=Where We'll Never Grow Old
TTITLE7=Leaning On The Everlasting Arms
TTITLE8=Won't It Be Wonderful There
TTITLE9=Selfishness In Man
TTITLE10=Cup Of Loneliness
TTITLE11=Will The Circle Be Unbroken
EXTD=
EXTT0=
EXTT1=
EXTT2=
EXTT3=
EXTT4=
EXTT5=
EXTT6=
EXTT7=
EXTT8=
EXTT9=
EXTT10=
EXTT11=
PLAYORDER=
